<?xml version="1.0" encoding="utf-8"?><!-- Uploaded to: SVG Repo, www.svgrepo.com, Generator: SVG Repo Mixer Tools -->
<svg fill="#000000" width="800px" height="800px" viewBox="0 0 24 24" id="stethoscope" data-name="Flat Color" xmlns="http://www.w3.org/2000/svg" class="icon flat-color"><path id="secondary" d="M14,22H12a5,5,0,0,1-5-5V12a1,1,0,0,1,2,0v5a3,3,0,0,0,3,3h2a3,3,0,0,0,3-3V11a1,1,0,0,1,2,0v6A5,5,0,0,1,14,22Z" style="fill: rgb(44, 169, 188);"></path><path id="primary" d="M21,9a3,3,0,1,1-3-3A3,3,0,0,1,21,9ZM13,8V3a1,1,0,0,0-1-1H11a1,1,0,0,0,0,2V8A3,3,0,0,1,5,8V4A1,1,0,0,0,5,2H4A1,1,0,0,0,3,3V8A5,5,0,0,0,13,8Z" style="fill: rgb(0, 0, 0);"></path></svg>